<?xml version="1.0" encoding="UTF-8" standalone="no"?>
<!-- Created with Inkscape (http://www.inkscape.org/) -->

<svg
   width="81.230255mm"
   height="30.040089mm"
   viewBox="0 0 81.230255 30.040089"
   version="1.1"
   id="svg1"
   inkscape:version="1.4.2 (f4327f4, 2025-05-13)"
   sodipodi:docname="hornback_blue_boxlogo.svg"
   xmlns:inkscape="http://www.inkscape.org/namespaces/inkscape"
   xmlns:sodipodi="http://sodipodi.sourceforge.net/DTD/sodipodi-0.dtd"
   xmlns="http://www.w3.org/2000/svg"
   xmlns:svg="http://www.w3.org/2000/svg">
  <sodipodi:namedview
     id="namedview1"
     pagecolor="#ffffff"
     bordercolor="#000000"
     borderopacity="0.25"
     inkscape:showpageshadow="2"
     inkscape:pageopacity="0.0"
     inkscape:pagecheckerboard="0"
     inkscape:deskcolor="#d1d1d1"
     inkscape:document-units="mm"
     inkscape:zoom="0.71891835"
     inkscape:cx="168.3084"
     inkscape:cy="287.93256"
     inkscape:window-width="933"
     inkscape:window-height="1032"
     inkscape:window-x="92"
     inkscape:window-y="23"
     inkscape:window-maximized="0"
     inkscape:current-layer="layer1" />
  <defs
     id="defs1" />
  <g
     inkscape:label="Layer 1"
     inkscape:groupmode="layer"
     id="layer1"
     transform="translate(-60.324987,-71.966661)">
    <path
       id="path13"
       d="M 60.324987,71.966661 H 141.55524 V 102.00675 H 60.324987 Z"
       style="fill:#1197c1;fill-opacity:1;fill-rule:nonzero;stroke:none;stroke-width:0.352778" />
    <path
       id="path18"
       d="m 69.551026,81.328075 c 0.713135,0 1.310515,0.217041 1.790072,0.649056 0.479557,0.429948 0.724504,0.983919 0.735873,1.661914 v 5.713346 h -2.038119 v -4.985742 c -0.02274,-0.398942 -0.139526,-0.713134 -0.3514,-0.942578 -0.212906,-0.23151 -0.531233,-0.353467 -0.95498,-0.367936 -0.631486,0 -1.151351,0.272851 -1.558561,0.818555 -0.405143,0.545703 -0.607715,1.231966 -0.607715,2.058789 v 3.418912 H 64.528078 V 75.159976 h 2.000911 v 7.805208 c 0.291455,-0.496093 0.695565,-0.892968 1.211295,-1.190625 0.514698,-0.297656 1.118278,-0.446484 1.810742,-0.446484 z m 4.436939,4.092774 c 0,-0.762745 0.183968,-1.460377 0.553971,-2.091863 0.36897,-0.630452 0.8816,-1.124479 1.537891,-1.480012 0.655257,-0.357601 1.401465,-0.537435 2.236556,-0.537435 0.837158,0 1.580265,0.179834 2.228287,0.537435 0.65009,0.355533 1.150318,0.84646 1.500684,1.471744 0.352433,0.626319 0.529166,1.326018 0.529166,2.100131 0,0.777213 -0.176733,1.478979 -0.529166,2.104264 -0.350366,0.623217 -0.850594,1.11621 -1.500684,1.480013 -0.648022,0.363802 -1.396297,0.545703 -2.244824,0.545703 -0.824756,0 -1.564762,-0.167432 -2.220019,-0.500228 -0.656291,-0.332796 -1.168921,-0.81132 -1.537891,-1.434538 -0.370003,-0.625285 -0.553971,-1.357023 -0.553971,-2.195214 z m 2.054655,0.02067 c 0,0.692464 0.211873,1.272274 0.636653,1.740462 0.423747,0.466121 0.95188,0.698665 1.583366,0.698665 0.655257,0 1.191659,-0.229443 1.608171,-0.690397 0.418579,-0.463021 0.628385,-1.045931 0.628385,-1.74873 0,-0.702799 -0.209806,-1.286743 -0.628385,-1.752865 -0.416512,-0.468188 -0.952914,-0.702799 -1.608171,-0.702799 -0.631486,0 -1.159619,0.239778 -1.583366,0.719336 -0.42478,0.47749 -0.636653,1.056266 -0.636653,1.736328 z m 10.408666,-2.000912 c 0.203605,-0.413411 0.492993,-0.783414 0.868164,-1.112076 0.377238,-0.327629 0.762744,-0.578776 1.157552,-0.752409 0.393775,-0.1757 0.724504,-0.264583 0.992188,-0.264583 l -0.09095,2.038118 c -0.557072,-0.04961 -1.054199,0.05168 -1.492415,0.301791 -0.436149,0.248046 -0.775147,0.587044 -1.016992,1.016991 -0.242879,0.429948 -0.363802,0.887802 -0.363802,1.372526 v 3.311426 h -2.038119 v -7.69772 h 1.835547 z m 9.8795,-2.112532 c 0.713135,0 1.310514,0.217041 1.790071,0.649056 0.479558,0.429948 0.724505,0.983919 0.735872,1.661914 v 5.713347 H 96.818612 V 84.36665 c -0.02274,-0.398942 -0.139527,-0.713134 -0.3514,-0.942578 -0.212907,-0.23151 -0.531234,-0.353467 -0.954981,-0.367936 -0.631486,0 -1.151351,0.270785 -1.558561,0.810287 -0.405143,0.540535 -0.607715,1.229899 -0.607715,2.067057 v 3.418912 H 91.307837 V 81.65467 h 1.835547 l 0.148828,1.364258 c 0.278019,-0.531234 0.680062,-0.946712 1.207161,-1.244369 0.529167,-0.297656 1.138949,-0.446484 1.831413,-0.446484 z m 10.205064,-0.01654 c 0.67799,0 1.30224,0.164331 1.87275,0.49196 0.57051,0.325562 1.02216,0.795817 1.35599,1.409733 0.3328,0.611849 0.50023,1.330151 0.50023,2.153874 0,0.84956 -0.1819,1.589567 -0.5457,2.220019 -0.36381,0.631486 -0.85163,1.116211 -1.46348,1.455208 -0.61185,0.338998 -1.27641,0.508496 -1.99265,0.508496 -0.60667,0 -1.14721,-0.109554 -1.62057,-0.326595 -0.47128,-0.217041 -0.87126,-0.513663 -1.19889,-0.888834 v 1.016992 h -2.03812 V 75.159976 h 2.03812 v 7.313249 c 0.32763,-0.349333 0.76068,-0.630453 1.29811,-0.843359 0.5395,-0.211874 1.13792,-0.318327 1.79421,-0.318327 z m -0.71107,6.511231 c 0.66662,0 1.22783,-0.235645 1.68259,-0.706934 0.45475,-0.473356 0.68212,-1.062467 0.68212,-1.765267 0,-0.448551 -0.10645,-0.860929 -0.31832,-1.2361 -0.21291,-0.377238 -0.49816,-0.671794 -0.85576,-0.884701 -0.35554,-0.211873 -0.75242,-0.318326 -1.19063,-0.318326 -0.57051,0 -1.07074,0.146761 -1.50068,0.438216 -0.42995,0.289388 -0.72347,0.676961 -0.88057,1.161686 v 1.711523 c 0.1819,0.496094 0.47749,0.887801 0.88884,1.174089 0.41341,0.28422 0.91053,0.425814 1.49241,0.425814 z m 14.39395,-6.1681 v 7.697721 h -2.03812 v -1.107942 c -0.28112,0.325561 -0.65939,0.624251 -1.13274,0.897102 -0.47129,0.272852 -1.0232,0.409278 -1.65365,0.409278 -0.73897,0 -1.40043,-0.15503 -1.98437,-0.463021 -0.58188,-0.307992 -1.0418,-0.765845 -1.3808,-1.372526 -0.339,-0.605648 -0.5085,-1.340487 -0.5085,-2.203483 0,-0.835091 0.17467,-1.570964 0.52504,-2.207617 0.35243,-0.636654 0.82269,-1.126546 1.40973,-1.471745 0.58911,-0.347265 1.2361,-0.520898 1.9389,-0.520898 1.25057,0 2.18488,0.460954 2.80293,1.380794 l 0.14469,-1.037663 z m -4.25814,6.225976 c 0.55604,0 1.02526,-0.141593 1.4056,-0.425813 0.38241,-0.286288 0.65423,-0.691431 0.81442,-1.21543 v -1.670182 c -0.14676,-0.473356 -0.42891,-0.855762 -0.84749,-1.14515 -0.41961,-0.291455 -0.90124,-0.438216 -1.44694,-0.438216 -0.64285,0 -1.18856,0.227376 -1.63711,0.682129 -0.44959,0.454752 -0.67386,1.033528 -0.67386,1.736328 0,0.460954 0.10852,0.879533 0.32659,1.256771 0.22015,0.375171 0.51264,0.672827 0.87644,0.892968 0.3638,0.218075 0.75757,0.326595 1.18235,0.326595 z m 13.18783,0.760677 c -0.339,0.28112 -0.75448,0.503329 -1.24437,0.665593 -0.49092,0.162264 -0.98598,0.243913 -1.48415,0.243913 -0.84955,0 -1.59887,-0.163298 -2.24895,-0.487826 -0.64803,-0.327628 -1.14825,-0.797884 -1.50069,-1.409733 -0.35036,-0.613916 -0.52503,-1.333252 -0.52503,-2.158008 0,-0.812353 0.18707,-1.525488 0.56224,-2.137337 0.37724,-0.611849 0.87747,-1.081071 1.50068,-1.409733 0.62529,-0.327628 1.29605,-0.491959 2.01332,-0.491959 1.21232,0 2.21278,0.328662 3.00136,0.983919 l -1.02112,1.327051 c -0.22945,-0.181901 -0.4992,-0.335897 -0.81029,-0.463021 -0.30902,-0.129191 -0.63872,-0.194304 -0.98805,-0.194304 -0.62012,0 -1.14515,0.229444 -1.5751,0.686264 -0.42995,0.454752 -0.64492,1.021126 -0.64492,1.69912 0,0.677995 0.22738,1.246436 0.68213,1.703256 0.45475,0.454752 1.03353,0.682128 1.73632,0.682128 0.60565,0 1.11622,-0.170532 1.52963,-0.51263 z m 4.7656,-2.782258 -0.88884,0.690397 v 2.802929 h -2.03811 V 75.159976 h 2.03811 v 9.281087 l 3.85713,-2.968294 1.2361,1.091406 -2.80293,2.186947 3.12953,4.601269 h -2.36471 z m 0,0"
       style="fill:#ffffff;fill-opacity:1;fill-rule:nonzero;stroke:none;stroke-width:0.352778"
       aria-label="hornback" />
    <path
       id="path19"
       d="m 68.341798,98.154954 c -0.201538,0.124023 -0.429948,0.226342 -0.686263,0.305924 -0.254248,0.07958 -0.525033,0.119889 -0.814421,0.119889 -0.553971,0 -1.044897,-0.124023 -1.471744,-0.37207 -0.424781,-0.250114 -0.75551,-0.588078 -0.992188,-1.012858 -0.234611,-0.423747 -0.3514,-0.889868 -0.3514,-1.397331 0,-0.534334 0.120923,-1.019059 0.363802,-1.455208 0.244947,-0.435116 0.57981,-0.778247 1.00459,-1.029394 0.423747,-0.253215 0.895036,-0.380339 1.413867,-0.380339 0.545704,0 1.047998,0.14056 1.508952,0.42168 l -0.16123,0.351399 c -0.436149,-0.26975 -0.882634,-0.405143 -1.339453,-0.405143 -0.429948,0 -0.829924,0.110588 -1.198894,0.33073 -0.366902,0.221175 -0.657324,0.520898 -0.872298,0.901236 -0.214974,0.380339 -0.322461,0.796851 -0.322461,1.248503 0,0.446484 0.09715,0.855762 0.293522,1.227832 0.198438,0.370003 0.477491,0.663525 0.839226,0.880566 0.363802,0.218075 0.783414,0.326595 1.260905,0.326595 0.476456,0 0.926041,-0.132291 1.347721,-0.396875 z m 1.057299,-2.389519 c 0,-0.506429 0.126091,-0.976684 0.380339,-1.409733 0.253215,-0.432014 0.595312,-0.777213 1.02526,-1.033528 0.429948,-0.258382 0.89917,-0.388607 1.409733,-0.388607 0.506429,0 0.977719,0.130225 1.413868,0.388607 0.435115,0.256315 0.77928,0.601514 1.033528,1.033528 0.256315,0.433049 0.384473,0.903304 0.384473,1.409733 0,0.507463 -0.128158,0.978752 -0.384473,1.413868 -0.254248,0.433048 -0.598413,0.775146 -1.033528,1.02526 -0.436149,0.251147 -0.907439,0.376204 -1.413868,0.376204 -0.51263,0 -0.985986,-0.120923 -1.418001,-0.363802 -0.429948,-0.244946 -0.771012,-0.58291 -1.021126,-1.012858 -0.251147,-0.429948 -0.376205,-0.909505 -0.376205,-1.438672 z m 0.388607,0.0083 c 0,0.441316 0.108521,0.84956 0.326595,1.223697 0.217042,0.372071 0.50953,0.668693 0.876433,0.888835 0.368969,0.221175 0.774112,0.330729 1.215429,0.330729 0.446485,0 0.856796,-0.10852 1.231966,-0.326595 0.374138,-0.217041 0.67076,-0.513664 0.888835,-0.888835 0.217041,-0.377237 0.326595,-0.789615 0.326595,-1.2361 0,-0.446484 -0.110588,-0.856795 -0.330729,-1.231966 -0.218075,-0.374137 -0.514698,-0.67386 -0.888835,-0.897102 -0.37207,-0.223243 -0.77928,-0.334864 -1.219564,-0.334864 -0.446484,0 -0.857828,0.113688 -1.231966,0.338998 -0.37207,0.223242 -0.664558,0.525032 -0.876432,0.905371 -0.212907,0.378271 -0.318327,0.787548 -0.318327,1.227832 z m 11.953792,-2.902149 v 5.647201 h -0.376204 v -4.535124 l -2.269629,3.195671 h -0.01654 l -2.253094,-3.15433 v 4.493783 h -0.37207 v -5.647201 h 0.0041 l 2.629297,3.741374 2.645833,-3.741374 z m 7.045564,0 v 5.647201 h -0.376204 v -4.535124 l -2.269629,3.195671 h -0.01654 l -2.253094,-3.15433 v 4.493783 h -0.37207 v -5.647201 h 0.0041 l 2.629296,3.741374 2.645834,-3.741374 z m 2.105298,3.782715 c 0,0.314193 0.06408,0.590145 0.194304,0.826823 0.129191,0.234611 0.310058,0.416512 0.541568,0.545703 0.231511,0.127124 0.49196,0.190169 0.781348,0.190169 0.294556,0 0.558106,-0.06305 0.789616,-0.190169 0.23151,-0.129191 0.413411,-0.311092 0.545703,-0.545703 0.132292,-0.236678 0.198438,-0.51263 0.198438,-0.826823 V 92.99561 h 0.37207 v 3.679362 c 0,0.394808 -0.08475,0.734838 -0.252181,1.021126 -0.165365,0.28422 -0.391708,0.503328 -0.677995,0.657324 -0.287321,0.151929 -0.611849,0.227376 -0.975651,0.227376 -0.358634,0 -0.682129,-0.07545 -0.971517,-0.227376 C 91.15074,98.199426 90.925431,97.980318 90.760067,97.696098 90.594702,97.40981 90.51202,97.06978 90.51202,96.674972 V 92.99561 h 0.380338 z m 9.785452,-3.658691 v 5.655468 h -0.0165 l -4.253993,-4.791438 0.0083,4.659147 h -0.37207 v -5.638932 h 0.02067 l 4.254003,4.828645 -0.008,-4.71289 z m 2.13734,0 v 5.523177 h -0.38034 V 92.99561 Z m 5.72368,5.159375 c -0.20154,0.124023 -0.42995,0.226342 -0.68627,0.305924 -0.25425,0.07958 -0.52503,0.119889 -0.81442,0.119889 -0.55397,0 -1.0449,-0.124023 -1.47174,-0.37207 -0.42478,-0.250114 -0.75551,-0.588078 -0.99219,-1.012858 -0.23461,-0.423747 -0.3514,-0.889868 -0.3514,-1.397331 0,-0.534334 0.12092,-1.019059 0.3638,-1.455208 0.24495,-0.435116 0.57981,-0.778247 1.00459,-1.029394 0.42375,-0.253215 0.89504,-0.380339 1.41387,-0.380339 0.5457,0 1.048,0.14056 1.50895,0.42168 l -0.16123,0.351399 c -0.43615,-0.26975 -0.88263,-0.405143 -1.33945,-0.405143 -0.42995,0 -0.82993,0.110588 -1.1989,0.33073 -0.3669,0.221175 -0.65732,0.520898 -0.8723,0.901236 -0.21497,0.380339 -0.32246,0.796851 -0.32246,1.248503 0,0.446484 0.0972,0.855762 0.29353,1.227832 0.19843,0.370003 0.47749,0.663525 0.83922,0.880566 0.36381,0.218075 0.78342,0.326595 1.26091,0.326595 0.47645,0 0.92604,-0.132291 1.34772,-0.396875 z m 4.47207,-1.463477 h -2.43499 l -0.73174,1.827279 h -0.38033 l 2.33163,-5.762956 h 0.0331 l 2.33164,5.762956 h -0.42582 z m -0.14055,-0.359668 -1.06661,-2.711979 -1.08727,2.711979 z m 5.32577,-3.33623 v 0.367936 h -1.62471 v 5.155241 h -0.38034 v -5.155241 h -1.6123 V 92.99561 Z m 1.69705,0 v 5.523177 h -0.38034 V 92.99561 Z m 1.40663,2.769856 c 0,-0.506429 0.12609,-0.976684 0.38034,-1.409733 0.25322,-0.432014 0.59531,-0.777213 1.02526,-1.033528 0.42995,-0.258382 0.89917,-0.388607 1.40974,-0.388607 0.50642,0 0.97771,0.130225 1.41386,0.388607 0.43512,0.256315 0.77928,0.601514 1.03353,1.033528 0.25632,0.433049 0.38447,0.903304 0.38447,1.409733 0,0.507463 -0.12815,0.978752 -0.38447,1.413868 -0.25425,0.433048 -0.59841,0.775146 -1.03353,1.02526 -0.43615,0.251147 -0.90744,0.376204 -1.41386,0.376204 -0.51264,0 -0.98599,-0.120923 -1.41801,-0.363802 -0.42995,-0.244946 -0.77101,-0.58291 -1.02112,-1.012858 -0.25115,-0.429948 -0.37621,-0.909505 -0.37621,-1.438672 z m 0.38861,0.0083 c 0,0.441316 0.10852,0.84956 0.32659,1.223697 0.21704,0.372071 0.50954,0.668693 0.87644,0.888835 0.36897,0.221175 0.77411,0.330729 1.21543,0.330729 0.44648,0 0.85679,-0.10852 1.23196,-0.326595 0.37414,-0.217041 0.67076,-0.513664 0.88884,-0.888835 0.21704,-0.377237 0.32659,-0.789615 0.32659,-1.2361 0,-0.446484 -0.11059,-0.856795 -0.33073,-1.231966 -0.21807,-0.374137 -0.5147,-0.67386 -0.88883,-0.897102 -0.37207,-0.223243 -0.77928,-0.334864 -1.21956,-0.334864 -0.44649,0 -0.85784,0.113688 -1.23197,0.338998 -0.37207,0.223242 -0.66456,0.525032 -0.87643,0.905371 -0.21291,0.378271 -0.31833,0.787548 -0.31833,1.227832 z m 11.3006,-2.778125 v 5.655468 h -0.0165 l -4.25401,-4.791438 0.008,4.659147 h -0.37207 v -5.638932 h 0.0207 l 4.254,4.828645 -0.008,-4.71289 z m 4.51549,0.624251 c -0.185,-0.08785 -0.39171,-0.162264 -0.62012,-0.223242 -0.22944,-0.06304 -0.45269,-0.09508 -0.66972,-0.09508 -0.36381,0 -0.65526,0.08992 -0.8723,0.268718 -0.21808,0.179833 -0.3266,0.408243 -0.3266,0.686262 0,0.198438 0.0579,0.366903 0.17363,0.504362 0.11783,0.135393 0.26872,0.248047 0.45062,0.338998 0.1819,0.09095 0.41445,0.192236 0.69867,0.30179 0.31109,0.113688 0.56844,0.230477 0.77308,0.3514 0.2067,0.118856 0.37827,0.280086 0.51676,0.483691 0.14056,0.204639 0.21084,0.467155 0.21084,0.789616 0,0.305925 -0.0734,0.577743 -0.21911,0.814421 -0.14366,0.234611 -0.34623,0.416512 -0.60771,0.545703 -0.26252,0.130224 -0.56121,0.194303 -0.8971,0.194303 -0.58705,0 -1.16893,-0.188102 -1.7446,-0.566374 l 0.1819,-0.314192 c 0.19017,0.146761 0.42375,0.274918 0.7028,0.384472 0.28112,0.107487 0.55397,0.161231 0.81855,0.161231 0.23358,0 0.45579,-0.04547 0.6656,-0.136426 0.20877,-0.09095 0.38033,-0.227376 0.51263,-0.409277 0.13229,-0.183968 0.19843,-0.406177 0.19843,-0.665593 0,-0.244946 -0.061,-0.450618 -0.1819,-0.615983 -0.12195,-0.165364 -0.27492,-0.297656 -0.45888,-0.396875 -0.18501,-0.101285 -0.41652,-0.204638 -0.69453,-0.310058 -0.31213,-0.112655 -0.56948,-0.223242 -0.77308,-0.330729 -0.20154,-0.107487 -0.37104,-0.248047 -0.5085,-0.42168 -0.13849,-0.1757 -0.2067,-0.396875 -0.2067,-0.661458 0,-0.258383 0.0661,-0.487826 0.19843,-0.686264 0.13229,-0.200504 0.31523,-0.356567 0.54984,-0.467155 0.23668,-0.112654 0.50126,-0.171565 0.79375,-0.177766 0.24805,0 0.5054,0.03514 0.77308,0.103353 0.26665,0.06615 0.50436,0.150895 0.71107,0.252181 z m 0,0"
       style="fill:#ffffff;fill-opacity:1;fill-rule:nonzero;stroke:none;stroke-width:0.352778"
       aria-label="COMMUNICATIONS" />
  </g>
</svg>
