<?xml version="1.0" encoding="UTF-8" standalone="no"?>
<!-- Created with Inkscape (http://www.inkscape.org/) -->

<svg
   width="81.638916mm"
   height="29.643908mm"
   viewBox="0 0 81.638916 29.643908"
   version="1.1"
   id="svg1"
   inkscape:version="1.4.2 (f4327f4, 2025-05-13)"
   sodipodi:docname="hornback_communications_bw_half_box_logo.svg"
   xmlns:inkscape="http://www.inkscape.org/namespaces/inkscape"
   xmlns:sodipodi="http://sodipodi.sourceforge.net/DTD/sodipodi-0.dtd"
   xmlns="http://www.w3.org/2000/svg"
   xmlns:svg="http://www.w3.org/2000/svg">
  <sodipodi:namedview
     id="namedview1"
     pagecolor="#ffffff"
     bordercolor="#000000"
     borderopacity="0.25"
     inkscape:showpageshadow="2"
     inkscape:pageopacity="0.0"
     inkscape:pagecheckerboard="0"
     inkscape:deskcolor="#d1d1d1"
     inkscape:document-units="mm"
     inkscape:zoom="0.71891835"
     inkscape:cx="117.53769"
     inkscape:cy="102.23692"
     inkscape:window-width="1920"
     inkscape:window-height="1009"
     inkscape:window-x="-8"
     inkscape:window-y="-8"
     inkscape:window-maximized="1"
     inkscape:current-layer="layer1" />
  <defs
     id="defs1" />
  <g
     inkscape:label="Layer 1"
     inkscape:groupmode="layer"
     id="layer1"
     transform="translate(-74.083324,-121.44375)">
    <path
       id="path14"
       d="m 83.431412,130.36016 c 0.713135,0 1.310514,0.21704 1.790072,0.64905 0.479557,0.42995 0.724503,0.98392 0.735872,1.66192 v 5.71334 h -2.038118 v -4.98574 c -0.02274,-0.39894 -0.139527,-0.71313 -0.3514,-0.94258 -0.212907,-0.23151 -0.531234,-0.35346 -0.95498,-0.36793 -0.631486,0 -1.151351,0.27285 -1.558562,0.81855 -0.405143,0.54571 -0.607714,1.23197 -0.607714,2.05879 v 3.41891 h -2.038119 v -14.19241 h 2.000912 v 7.80521 c 0.291455,-0.4961 0.695564,-0.89297 1.211295,-1.19063 0.514698,-0.29765 1.118278,-0.44648 1.810742,-0.44648 z m 4.436938,4.09277 c 0,-0.76274 0.183969,-1.46037 0.553972,-2.09186 0.36897,-0.63045 0.8816,-1.12448 1.537891,-1.48001 0.655257,-0.3576 1.401464,-0.53744 2.236555,-0.53744 0.837158,0 1.580266,0.17984 2.228288,0.53744 0.650089,0.35553 1.150317,0.84646 1.500683,1.47174 0.352434,0.62632 0.529167,1.32602 0.529167,2.10013 0,0.77722 -0.176733,1.47898 -0.529167,2.10427 -0.350366,0.62321 -0.850594,1.11621 -1.500683,1.48001 -0.648022,0.3638 -1.396297,0.5457 -2.244824,0.5457 -0.824756,0 -1.564762,-0.16743 -2.220019,-0.50023 -0.656291,-0.33279 -1.168921,-0.81132 -1.537891,-1.43453 -0.370003,-0.62529 -0.553972,-1.35703 -0.553972,-2.19522 z m 2.054655,0.0207 c 0,0.69247 0.211874,1.27227 0.636654,1.74046 0.423747,0.46612 0.95188,0.69867 1.583366,0.69867 0.655257,0 1.191658,-0.22944 1.60817,-0.6904 0.418579,-0.46302 0.628386,-1.04593 0.628386,-1.74873 0,-0.7028 -0.209807,-1.28674 -0.628386,-1.75286 -0.416512,-0.46819 -0.952913,-0.7028 -1.60817,-0.7028 -0.631486,0 -1.159619,0.23978 -1.583366,0.71933 -0.42478,0.47749 -0.636654,1.05627 -0.636654,1.73633 z m 10.408665,-2.00091 c 0.20361,-0.41341 0.493,-0.78341 0.86817,-1.11208 0.37723,-0.32763 0.76274,-0.57877 1.15755,-0.75241 0.39377,-0.1757 0.7245,-0.26458 0.99219,-0.26458 l -0.091,2.03812 c -0.55707,-0.0496 -1.05419,0.0517 -1.49241,0.30179 -0.43615,0.24805 -0.77515,0.58704 -1.01699,1.01699 -0.24288,0.42995 -0.3638,0.8878 -0.3638,1.37253 v 3.31142 h -2.038123 v -7.69772 h 1.835543 z m 9.8795,-2.11253 c 0.71314,0 1.31052,0.21704 1.79007,0.64905 0.47956,0.42995 0.72451,0.98392 0.73588,1.66192 v 5.71334 H 110.699 v -4.98574 c -0.0227,-0.39894 -0.13953,-0.71313 -0.3514,-0.94258 -0.21291,-0.23151 -0.53124,-0.35346 -0.95498,-0.36793 -0.63149,0 -1.15135,0.27078 -1.55856,0.81028 -0.40515,0.54054 -0.60772,1.2299 -0.60772,2.06706 v 3.41891 h -2.03812 v -7.69772 h 1.83555 l 0.14883,1.36426 c 0.27802,-0.53123 0.68006,-0.94671 1.20716,-1.24437 0.52917,-0.29765 1.13895,-0.44648 1.83141,-0.44648 z m 10.20506,-0.0165 c 0.678,0 1.30225,0.16433 1.87276,0.49196 0.57051,0.32556 1.02216,0.79582 1.35599,1.40974 0.33279,0.61184 0.50022,1.33015 0.50022,2.15387 0,0.84956 -0.1819,1.58957 -0.5457,2.22002 -0.3638,0.63148 -0.85163,1.11621 -1.46347,1.45521 -0.61185,0.33899 -1.27641,0.50849 -1.99265,0.50849 -0.60668,0 -1.14721,-0.10955 -1.62057,-0.32659 -0.47129,-0.21704 -0.87127,-0.51367 -1.19889,-0.88884 v 1.01699 h -2.03812 v -14.19241 h 2.03812 v 7.31325 c 0.32762,-0.34933 0.76067,-0.63045 1.29811,-0.84336 0.5395,-0.21187 1.13791,-0.31833 1.7942,-0.31833 z m -0.71107,6.51123 c 0.66663,0 1.22784,-0.23564 1.68259,-0.70693 0.45475,-0.47336 0.68213,-1.06247 0.68213,-1.76527 0,-0.44855 -0.10645,-0.86093 -0.31833,-1.2361 -0.2129,-0.37724 -0.49816,-0.67179 -0.85576,-0.8847 -0.35553,-0.21187 -0.75241,-0.31833 -1.19063,-0.31833 -0.5705,0 -1.07073,0.14677 -1.50068,0.43822 -0.42995,0.28939 -0.72347,0.67696 -0.88056,1.16169 v 1.71152 c 0.1819,0.49609 0.47749,0.8878 0.88883,1.17409 0.41341,0.28422 0.91054,0.42581 1.49241,0.42581 z m 14.39396,-6.1681 v 7.69772 H 132.061 v -1.10794 c -0.28112,0.32556 -0.65939,0.62425 -1.13275,0.8971 -0.47129,0.27286 -1.02319,0.40928 -1.65364,0.40928 -0.73898,0 -1.40044,-0.15503 -1.98438,-0.46302 -0.58188,-0.30799 -1.0418,-0.76584 -1.38079,-1.37252 -0.339,-0.60565 -0.5085,-1.34049 -0.5085,-2.20349 0,-0.83509 0.17467,-1.57096 0.52503,-2.20761 0.35244,-0.63666 0.82269,-1.12655 1.40974,-1.47175 0.58911,-0.34727 1.2361,-0.5209 1.9389,-0.5209 1.25057,0 2.18488,0.46096 2.80293,1.3808 l 0.14469,-1.03767 z m -4.25814,6.22598 c 0.55604,0 1.02526,-0.14159 1.4056,-0.42581 0.38241,-0.28629 0.65422,-0.69143 0.81442,-1.21543 v -1.67019 c -0.14676,-0.47335 -0.42892,-0.85576 -0.84749,-1.14515 -0.41962,-0.29145 -0.90124,-0.43821 -1.44694,-0.43821 -0.64286,0 -1.18856,0.22737 -1.63711,0.68213 -0.44959,0.45475 -0.67386,1.03353 -0.67386,1.73633 0,0.46095 0.10852,0.87953 0.32659,1.25677 0.22014,0.37517 0.51263,0.67282 0.87643,0.89296 0.3638,0.21808 0.75758,0.3266 1.18236,0.3266 z m 13.18783,0.76068 c -0.339,0.28112 -0.75448,0.50333 -1.24438,0.66559 -0.49092,0.16226 -0.98598,0.24391 -1.48414,0.24391 -0.84956,0 -1.59887,-0.1633 -2.24896,-0.48782 -0.64802,-0.32763 -1.14825,-0.79789 -1.50068,-1.40974 -0.35037,-0.61391 -0.52503,-1.33325 -0.52503,-2.158 0,-0.81236 0.18706,-1.52549 0.56224,-2.13734 0.37723,-0.61185 0.87746,-1.08107 1.50068,-1.40973 0.62528,-0.32763 1.29604,-0.49196 2.01331,-0.49196 1.21233,0 2.21279,0.32866 3.00137,0.98392 l -1.02113,1.32705 c -0.22944,-0.18191 -0.49919,-0.3359 -0.81028,-0.46302 -0.30903,-0.1292 -0.63873,-0.19431 -0.98806,-0.19431 -0.62011,0 -1.14515,0.22945 -1.5751,0.68626 -0.42994,0.45476 -0.64492,1.02113 -0.64492,1.69913 0,0.67799 0.22738,1.24643 0.68213,1.70325 0.45476,0.45475 1.03353,0.68213 1.73633,0.68213 0.60565,0 1.11621,-0.17053 1.52962,-0.51263 z m 4.7656,-2.78226 -0.88884,0.6904 v 2.80292 h -2.03812 v -14.19241 h 2.03812 v 9.28109 l 3.85713,-2.9683 1.2361,1.09141 -2.80293,2.18695 3.12953,4.60126 h -2.36472 z m 0,0"
       style="fill:#000000;fill-opacity:1;fill-rule:nonzero;stroke:none;stroke-width:0.352778"
       aria-label="hornback" />
    <path
       id="path15"
       d="m 82.222184,147.18703 c -0.201538,0.12403 -0.429948,0.22634 -0.686262,0.30593 -0.254248,0.0796 -0.525033,0.11989 -0.814421,0.11989 -0.553971,0 -1.044897,-0.12403 -1.471745,-0.37207 -0.42478,-0.25012 -0.755509,-0.58808 -0.992187,-1.01286 -0.234611,-0.42375 -0.3514,-0.88987 -0.3514,-1.39733 0,-0.53434 0.120923,-1.01906 0.363802,-1.45521 0.244946,-0.43512 0.57981,-0.77825 1.00459,-1.0294 0.423747,-0.25321 0.895036,-0.38033 1.413867,-0.38033 0.545703,0 1.047998,0.14056 1.508952,0.42168 l -0.161231,0.35139 c -0.436149,-0.26975 -0.882633,-0.40514 -1.339453,-0.40514 -0.429948,0 -0.829923,0.11059 -1.198893,0.33073 -0.366903,0.22118 -0.657324,0.5209 -0.872298,0.90124 -0.214974,0.38034 -0.322461,0.79685 -0.322461,1.2485 0,0.44648 0.09715,0.85576 0.293522,1.22783 0.198438,0.37001 0.47749,0.66353 0.839225,0.88057 0.363802,0.21807 0.783415,0.32659 1.260905,0.32659 0.476457,0 0.926042,-0.13229 1.347722,-0.39687 z m 1.0573,-2.38952 c 0,-0.50643 0.126091,-0.97668 0.380339,-1.40973 0.253214,-0.43201 0.595312,-0.77721 1.02526,-1.03353 0.429948,-0.25838 0.89917,-0.3886 1.409733,-0.3886 0.506429,0 0.977718,0.13022 1.413867,0.3886 0.435116,0.25632 0.779281,0.60152 1.033529,1.03353 0.256315,0.43305 0.384472,0.9033 0.384472,1.40973 0,0.50747 -0.128157,0.97876 -0.384472,1.41387 -0.254248,0.43305 -0.598413,0.77515 -1.033529,1.02526 -0.436149,0.25115 -0.907438,0.37621 -1.413867,0.37621 -0.51263,0 -0.985986,-0.12093 -1.418001,-0.36381 -0.429948,-0.24494 -0.771013,-0.58291 -1.021126,-1.01285 -0.251148,-0.42995 -0.376205,-0.90951 -0.376205,-1.43868 z m 0.388607,0.008 c 0,0.44132 0.10852,0.84956 0.326595,1.2237 0.217041,0.37207 0.509529,0.66869 0.876432,0.88883 0.36897,0.22118 0.774113,0.33073 1.21543,0.33073 0.446484,0 0.856795,-0.10852 1.231966,-0.32659 0.374137,-0.21704 0.67076,-0.51367 0.888835,-0.88884 0.217041,-0.37723 0.326595,-0.78961 0.326595,-1.2361 0,-0.44648 -0.110588,-0.85679 -0.33073,-1.23196 -0.218074,-0.37414 -0.514697,-0.67386 -0.888834,-0.89711 -0.37207,-0.22324 -0.779281,-0.33486 -1.219564,-0.33486 -0.446484,0 -0.857829,0.11369 -1.231966,0.339 -0.37207,0.22324 -0.664559,0.52503 -0.876432,0.90537 -0.212907,0.37827 -0.318327,0.78755 -0.318327,1.22783 z m 11.953792,-2.90215 v 5.6472 h -0.376205 v -4.53512 l -2.269628,3.19567 h -0.01654 l -2.253094,-3.15433 v 4.49378 h -0.37207 v -5.6472 h 0.0041 l 2.629297,3.74138 2.645833,-3.74138 z m 7.045567,0 v 5.6472 h -0.37621 v -4.53512 l -2.26963,3.19567 h -0.0165 l -2.253095,-3.15433 v 4.49378 h -0.37207 v -5.6472 h 0.0041 l 2.629305,3.74138 2.64583,-3.74138 z m 2.10529,3.78272 c 0,0.31419 0.0641,0.59014 0.19431,0.82682 0.12919,0.23461 0.31006,0.41651 0.54157,0.5457 0.23151,0.12713 0.49196,0.19017 0.78134,0.19017 0.29456,0 0.55811,-0.063 0.78962,-0.19017 0.23151,-0.12919 0.41341,-0.31109 0.5457,-0.5457 0.1323,-0.23668 0.19844,-0.51263 0.19844,-0.82682 v -3.65869 h 0.37207 v 3.67936 c 0,0.39481 -0.0847,0.73484 -0.25218,1.02113 -0.16536,0.28422 -0.39171,0.50332 -0.67799,0.65732 -0.28733,0.15193 -0.61185,0.22738 -0.97566,0.22738 -0.35863,0 -0.68212,-0.0755 -0.97151,-0.22738 -0.28732,-0.154 -0.51263,-0.3731 -0.678,-0.65732 -0.16536,-0.28629 -0.24804,-0.62632 -0.24804,-1.02113 v -3.67936 h 0.38033 z m 9.78545,-3.65869 v 5.65547 h -0.0165 l -4.254,-4.79144 0.008,4.65914 h -0.37207 v -5.63893 h 0.0207 l 4.25401,4.82865 -0.008,-4.71289 z m 2.13837,0 v 5.52317 h -0.38033 v -5.52317 z m 5.72265,5.15937 c -0.20154,0.12403 -0.42995,0.22634 -0.68626,0.30593 -0.25425,0.0796 -0.52503,0.11989 -0.81442,0.11989 -0.55397,0 -1.0449,-0.12403 -1.47175,-0.37207 -0.42478,-0.25012 -0.7555,-0.58808 -0.99218,-1.01286 -0.23461,-0.42375 -0.3514,-0.88987 -0.3514,-1.39733 0,-0.53434 0.12092,-1.01906 0.3638,-1.45521 0.24494,-0.43512 0.57981,-0.77825 1.00459,-1.0294 0.42374,-0.25321 0.89503,-0.38033 1.41386,-0.38033 0.54571,0 1.048,0.14056 1.50896,0.42168 l -0.16123,0.35139 c -0.43615,-0.26975 -0.88264,-0.40514 -1.33946,-0.40514 -0.42994,0 -0.82992,0.11059 -1.19889,0.33073 -0.3669,0.22118 -0.65732,0.5209 -0.8723,0.90124 -0.21497,0.38034 -0.32246,0.79685 -0.32246,1.2485 0,0.44648 0.0971,0.85576 0.29352,1.22783 0.19844,0.37001 0.47749,0.66353 0.83923,0.88057 0.3638,0.21807 0.78342,0.32659 1.2609,0.32659 0.47646,0 0.92604,-0.13229 1.34772,-0.39687 z m 4.47208,-1.46347 h -2.43499 l -0.73174,1.82727 h -0.38034 l 2.33164,-5.76295 h 0.0331 l 2.33164,5.76295 h -0.42582 z m -0.14056,-0.35967 -1.0666,-2.71198 -1.08727,2.71198 z m 5.32577,-3.33623 v 0.36793 h -1.6247 v 5.15524 h -0.38034 v -5.15524 h -1.61231 v -0.36793 z m 1.69706,0 v 5.52317 h -0.38034 v -5.52317 z m 1.40663,2.76985 c 0,-0.50643 0.12609,-0.97668 0.38034,-1.40973 0.25321,-0.43201 0.59531,-0.77721 1.02526,-1.03353 0.42995,-0.25838 0.89917,-0.3886 1.40973,-0.3886 0.50643,0 0.97772,0.13022 1.41387,0.3886 0.43511,0.25632 0.77928,0.60152 1.03353,1.03353 0.25631,0.43305 0.38447,0.9033 0.38447,1.40973 0,0.50747 -0.12816,0.97876 -0.38447,1.41387 -0.25425,0.43305 -0.59842,0.77515 -1.03353,1.02526 -0.43615,0.25115 -0.90744,0.37621 -1.41387,0.37621 -0.51263,0 -0.98598,-0.12093 -1.418,-0.36381 -0.42995,-0.24494 -0.77101,-0.58291 -1.02113,-1.01285 -0.25114,-0.42995 -0.3762,-0.90951 -0.3762,-1.43868 z m 0.3886,0.008 c 0,0.44132 0.10853,0.84956 0.3266,1.2237 0.21704,0.37207 0.50953,0.66869 0.87643,0.88883 0.36897,0.22118 0.77412,0.33073 1.21543,0.33073 0.44649,0 0.8568,-0.10852 1.23197,-0.32659 0.37414,-0.21704 0.67076,-0.51367 0.88883,-0.88884 0.21705,-0.37723 0.3266,-0.78961 0.3266,-1.2361 0,-0.44648 -0.11059,-0.85679 -0.33073,-1.23196 -0.21807,-0.37414 -0.5147,-0.67386 -0.88884,-0.89711 -0.37207,-0.22324 -0.77927,-0.33486 -1.21956,-0.33486 -0.44648,0 -0.85783,0.11369 -1.23197,0.339 -0.37206,0.22324 -0.66455,0.52503 -0.87643,0.90537 -0.2129,0.37827 -0.31833,0.78755 -0.31833,1.22783 z m 11.30061,-2.77812 v 5.65547 h -0.0166 l -4.25399,-4.79144 0.008,4.65914 h -0.37207 v -5.63893 h 0.0207 l 4.254,4.82865 -0.008,-4.71289 z m 4.51548,0.62425 c -0.185,-0.0878 -0.3917,-0.16227 -0.62011,-0.22324 -0.22945,-0.0631 -0.45269,-0.0951 -0.66973,-0.0951 -0.3638,0 -0.65526,0.0899 -0.8723,0.26872 -0.21807,0.17983 -0.32659,0.40824 -0.32659,0.68626 0,0.19844 0.0579,0.3669 0.17363,0.50436 0.11782,0.1354 0.26872,0.24805 0.45062,0.339 0.1819,0.0909 0.41444,0.19224 0.69866,0.30179 0.3111,0.11369 0.56844,0.23048 0.77308,0.3514 0.20671,0.11886 0.37828,0.28009 0.51677,0.48369 0.14056,0.20464 0.21084,0.46716 0.21084,0.78962 0,0.30592 -0.0734,0.57774 -0.21911,0.81442 -0.14366,0.23461 -0.34623,0.41651 -0.60772,0.5457 -0.26251,0.13023 -0.5612,0.19431 -0.8971,0.19431 -0.58704,0 -1.16892,-0.18811 -1.74459,-0.56638 l 0.1819,-0.31419 c 0.19017,0.14676 0.42374,0.27492 0.7028,0.38447 0.28112,0.10749 0.55397,0.16123 0.81855,0.16123 0.23358,0 0.45579,-0.0455 0.66559,-0.13642 0.20878,-0.0909 0.38034,-0.22738 0.51263,-0.40928 0.1323,-0.18397 0.19844,-0.40618 0.19844,-0.66559 0,-0.24495 -0.061,-0.45062 -0.1819,-0.61599 -0.12196,-0.16536 -0.27492,-0.29765 -0.45889,-0.39687 -0.185,-0.10129 -0.41651,-0.20464 -0.69453,-0.31006 -0.31212,-0.11265 -0.56947,-0.22324 -0.77308,-0.33073 -0.20153,-0.10749 -0.37103,-0.24805 -0.50849,-0.42168 -0.1385,-0.1757 -0.20671,-0.39687 -0.20671,-0.66146 0,-0.25838 0.0661,-0.48782 0.19844,-0.68626 0.13229,-0.2005 0.31523,-0.35657 0.54984,-0.46715 0.23667,-0.11266 0.50126,-0.17157 0.79375,-0.17777 0.24804,0 0.50539,0.0351 0.77307,0.10335 0.26665,0.0661 0.50437,0.1509 0.71107,0.25218 z m 0,0"
       style="fill:#000000;fill-opacity:1;fill-rule:nonzero;stroke:none;stroke-width:0.352778"
       aria-label="COMMUNICATIONS" />
    <path
       id="path24"
       d="m 155.54585,135.03098 v 15.88029 h -18.50602"
       style="fill:none;stroke:#231f20;stroke-width:0.352778;stroke-linecap:butt;stroke-linejoin:miter;stroke-miterlimit:10;stroke-dasharray:none;stroke-opacity:1" />
    <path
       id="path25"
       d="M 74.259713,137.50043 V 121.62014 H 92.765729"
       style="fill:none;stroke:#231f20;stroke-width:0.352778;stroke-linecap:butt;stroke-linejoin:miter;stroke-miterlimit:10;stroke-dasharray:none;stroke-opacity:1" />
  </g>
</svg>
