<?xml version="1.0" encoding="UTF-8" standalone="no"?>
<!-- Created with Inkscape (http://www.inkscape.org/) -->

<svg
   width="79.146042mm"
   height="28.222221mm"
   viewBox="0 0 79.146042 28.222221"
   version="1.1"
   id="svg1"
   inkscape:version="1.4.2 (f4327f4, 2025-05-13)"
   sodipodi:docname="hornback_communications_bw_box_logo.svg"
   xmlns:inkscape="http://www.inkscape.org/namespaces/inkscape"
   xmlns:sodipodi="http://sodipodi.sourceforge.net/DTD/sodipodi-0.dtd"
   xmlns="http://www.w3.org/2000/svg"
   xmlns:svg="http://www.w3.org/2000/svg">
  <sodipodi:namedview
     id="namedview1"
     pagecolor="#ffffff"
     bordercolor="#000000"
     borderopacity="0.25"
     inkscape:showpageshadow="2"
     inkscape:pageopacity="0.0"
     inkscape:pagecheckerboard="0"
     inkscape:deskcolor="#d1d1d1"
     inkscape:document-units="mm"
     inkscape:zoom="0.71891835"
     inkscape:cx="43.815824"
     inkscape:cy="228.81597"
     inkscape:window-width="1920"
     inkscape:window-height="1009"
     inkscape:window-x="-8"
     inkscape:window-y="-8"
     inkscape:window-maximized="1"
     inkscape:current-layer="layer1" />
  <defs
     id="defs1" />
  <g
     inkscape:label="Layer 1"
     inkscape:groupmode="layer"
     id="layer1"
     transform="translate(-93.662487,-88.106251)">
    <path
       id="path20"
       d="m 101.48073,96.438699 c 0.71313,0 1.31051,0.217041 1.79007,0.649055 0.47956,0.429948 0.7245,0.98392 0.73587,1.661915 v 5.713341 h -2.03812 v -4.985737 c -0.0227,-0.398942 -0.13952,-0.713135 -0.3514,-0.942578 -0.2129,-0.231511 -0.53123,-0.353467 -0.95498,-0.367937 -0.63148,0 -1.151346,0.272852 -1.558557,0.818555 -0.405143,0.545703 -0.607714,1.231967 -0.607714,2.058787 v 3.41891 H 96.45778 V 90.2706 h 2.000912 v 7.805208 c 0.291455,-0.496094 0.695564,-0.892969 1.211295,-1.190625 0.514693,-0.297656 1.118283,-0.446484 1.810743,-0.446484 z m 4.43797,4.092771 c 0,-0.762742 0.18397,-1.460374 0.55397,-2.09186 0.36897,-0.630453 0.8816,-1.124479 1.53789,-1.480013 0.65526,-0.357601 1.40147,-0.537435 2.23656,-0.537435 0.83716,0 1.58026,0.179834 2.22829,0.537435 0.65009,0.355534 1.15031,0.84646 1.50068,1.471745 0.35243,0.626318 0.52917,1.326017 0.52917,2.100128 0,0.77722 -0.17674,1.47898 -0.52917,2.10427 -0.35037,0.62321 -0.85059,1.11621 -1.50068,1.48001 -0.64803,0.3638 -1.3963,0.5457 -2.24483,0.5457 -0.82475,0 -1.56476,-0.16743 -2.22002,-0.50023 -0.65629,-0.33279 -1.16892,-0.81132 -1.53789,-1.43453 -0.37,-0.62529 -0.55397,-1.35703 -0.55397,-2.19522 z m 2.05466,0.0207 c 0,0.69247 0.21187,1.27227 0.63665,1.74046 0.42375,0.46612 0.95188,0.69867 1.58337,0.69867 0.65525,0 1.19165,-0.22944 1.60817,-0.6904 0.41857,-0.46302 0.62838,-1.04593 0.62838,-1.74873 0,-0.702799 -0.20981,-1.286742 -0.62838,-1.752863 -0.41652,-0.468189 -0.95292,-0.7028 -1.60817,-0.7028 -0.63149,0 -1.15962,0.239779 -1.58337,0.719336 -0.42478,0.47749 -0.63665,1.056266 -0.63665,1.736327 z m 10.40866,-2.00091 c 0.20361,-0.413412 0.493,-0.783415 0.86817,-1.112077 0.37723,-0.327629 0.76274,-0.578776 1.15755,-0.752409 0.39377,-0.1757 0.7245,-0.264583 0.99219,-0.264583 l -0.0909,2.038118 c -0.55708,-0.04961 -1.0542,0.05168 -1.49242,0.30179 -0.43615,0.248047 -0.77515,0.587045 -1.01699,1.016993 -0.24288,0.429948 -0.3638,0.887798 -0.3638,1.372528 v 3.31142 h -2.03812 v -7.697716 h 1.83554 z m 9.8795,-2.112533 c 0.71314,0 1.31052,0.217041 1.79007,0.649056 0.47956,0.429948 0.72451,0.983919 0.73587,1.661914 v 5.713343 h -2.03811 v -4.985737 c -0.0227,-0.398942 -0.13953,-0.713135 -0.3514,-0.942578 -0.21291,-0.231511 -0.53124,-0.353467 -0.95498,-0.367937 -0.63149,0 -1.15135,0.270785 -1.55856,0.810287 -0.40515,0.540535 -0.60772,1.229895 -0.60772,2.067055 v 3.41891 h -2.03812 v -7.697716 h 1.83555 l 0.14883,1.364257 c 0.27802,-0.531233 0.68006,-0.946712 1.20716,-1.244368 0.52917,-0.297656 1.13895,-0.446484 1.83141,-0.446484 z m 10.20403,-0.01653 c 0.678,0 1.30225,0.164331 1.87275,0.491959 0.57051,0.325561 1.02216,0.795817 1.35599,1.409733 0.3328,0.611849 0.50023,1.330151 0.50023,2.153871 0,0.84956 -0.1819,1.58957 -0.5457,2.22002 -0.3638,0.63148 -0.85163,1.11621 -1.46348,1.45521 -0.61185,0.33899 -1.27641,0.50849 -1.99264,0.50849 -0.60668,0 -1.14722,-0.10955 -1.62057,-0.32659 -0.47129,-0.21704 -0.87127,-0.51367 -1.1989,-0.88884 v 1.01699 h -2.03812 V 90.2706 h 2.03812 v 7.313248 c 0.32763,-0.349332 0.76068,-0.630452 1.29812,-0.843359 0.5395,-0.211874 1.13791,-0.318327 1.7942,-0.318327 z m -0.71107,6.511223 c 0.66663,0 1.22784,-0.23564 1.68259,-0.70693 0.45475,-0.47336 0.68212,-1.06247 0.68212,-1.76527 0,-0.44855 -0.10645,-0.860923 -0.31832,-1.236094 -0.21291,-0.377238 -0.49816,-0.671794 -0.85576,-0.8847 -0.35554,-0.211874 -0.75241,-0.318327 -1.19063,-0.318327 -0.57051,0 -1.07073,0.146761 -1.50068,0.438216 -0.42995,0.289388 -0.72347,0.676961 -0.88057,1.161686 v 1.711519 c 0.1819,0.49609 0.47749,0.8878 0.88884,1.17409 0.41341,0.28422 0.91053,0.42581 1.49241,0.42581 z m 14.39499,-6.168092 v 7.697712 h -2.03812 v -1.10794 c -0.28112,0.32556 -0.65939,0.62425 -1.13275,0.8971 -0.47129,0.27286 -1.02319,0.40928 -1.65364,0.40928 -0.73898,0 -1.40043,-0.15503 -1.98438,-0.46302 -0.58187,-0.30799 -1.04179,-0.76584 -1.38079,-1.37252 -0.339,-0.60565 -0.5085,-1.34049 -0.5085,-2.20349 0,-0.835085 0.17467,-1.570957 0.52504,-2.207611 0.35243,-0.636653 0.82268,-1.126546 1.40973,-1.471745 0.58911,-0.347265 1.2361,-0.520898 1.9389,-0.520898 1.25057,0 2.18488,0.460954 2.80293,1.380794 l 0.14469,-1.037662 z m -4.25814,6.225972 c 0.55604,0 1.02526,-0.14159 1.4056,-0.42581 0.3824,-0.28629 0.65422,-0.69143 0.81442,-1.21543 v -1.670182 c -0.14676,-0.473356 -0.42891,-0.855762 -0.84749,-1.145149 -0.41961,-0.291456 -0.90124,-0.438217 -1.44694,-0.438217 -0.64286,0 -1.18856,0.227377 -1.63711,0.682129 -0.44959,0.454753 -0.67386,1.033529 -0.67386,1.736329 0,0.46095 0.10852,0.87953 0.32659,1.25677 0.22014,0.37517 0.51263,0.67282 0.87643,0.89296 0.36381,0.21808 0.75758,0.3266 1.18236,0.3266 z m 13.18783,0.76068 c -0.339,0.28112 -0.75448,0.50333 -1.24437,0.66559 -0.49093,0.16226 -0.98599,0.24391 -1.48415,0.24391 -0.84956,0 -1.59887,-0.1633 -2.24896,-0.48782 -0.64802,-0.32763 -1.14825,-0.79789 -1.50068,-1.40974 -0.35037,-0.61391 -0.52504,-1.33325 -0.52504,-2.158 0,-0.812354 0.18708,-1.525488 0.56224,-2.137337 0.37724,-0.611849 0.87747,-1.081071 1.50069,-1.409733 0.62528,-0.327629 1.29604,-0.49196 2.01331,-0.49196 1.21233,0 2.21279,0.328662 3.00137,0.983919 l -1.02113,1.327051 c -0.22944,-0.181901 -0.49919,-0.335897 -0.81028,-0.463021 -0.30903,-0.129191 -0.63872,-0.194303 -0.98805,-0.194303 -0.62012,0 -1.14516,0.229443 -1.5751,0.686263 -0.42995,0.454752 -0.64492,1.021126 -0.64492,1.699121 0,0.67799 0.22737,1.24643 0.68212,1.70325 0.45475,0.45475 1.03353,0.68213 1.73633,0.68213 0.60565,0 1.11621,-0.17053 1.52962,-0.51263 z m 4.76456,-2.78226 -0.88883,0.6904 v 2.80292 h -2.03812 V 90.2706 h 2.03812 v 9.281087 l 3.85713,-2.968294 1.2361,1.091406 -2.80293,2.186946 3.12952,4.601265 H 168.01 Z m 0,0"
       style="fill:#000000;fill-opacity:1;fill-rule:nonzero;stroke:none;stroke-width:0.352778"
       aria-label="hornback" />
    <path
       id="path21"
       d="m 100.27149,113.26558 c -0.20154,0.12403 -0.429946,0.22634 -0.686261,0.30593 -0.254248,0.0796 -0.525032,0.11989 -0.81442,0.11989 -0.553972,0 -1.044898,-0.12403 -1.471745,-0.37207 -0.42478,-0.25012 -0.755509,-0.58808 -0.992188,-1.01286 -0.23461,-0.42375 -0.351399,-0.88987 -0.351399,-1.39733 0,-0.53434 0.120923,-1.01906 0.363802,-1.45521 0.244946,-0.43512 0.579809,-0.77825 1.00459,-1.0294 0.423746,-0.25321 0.895035,-0.38033 1.413867,-0.38033 0.545703,0 1.047998,0.14056 1.508954,0.42168 l -0.16123,0.35139 c -0.436152,-0.26975 -0.882636,-0.40514 -1.339456,-0.40514 -0.429948,0 -0.829923,0.11059 -1.198893,0.33073 -0.366903,0.22118 -0.657324,0.5209 -0.872298,0.90124 -0.214974,0.38034 -0.322461,0.79685 -0.322461,1.2485 0,0.44648 0.09715,0.85576 0.293522,1.22783 0.198437,0.37001 0.47749,0.66353 0.839225,0.88057 0.363802,0.21807 0.783415,0.32659 1.260905,0.32659 0.476457,0 0.926042,-0.13229 1.347726,-0.39687 z m 1.05834,-2.38952 c 0,-0.50643 0.12609,-0.97668 0.38033,-1.40973 0.25322,-0.43201 0.59532,-0.77721 1.02526,-1.03353 0.42995,-0.25838 0.89917,-0.3886 1.40974,-0.3886 0.50643,0 0.97772,0.13022 1.41386,0.3886 0.43512,0.25632 0.77928,0.60152 1.03353,1.03353 0.25632,0.43305 0.38448,0.9033 0.38448,1.40973 0,0.50747 -0.12816,0.97876 -0.38448,1.41387 -0.25425,0.43305 -0.59841,0.77515 -1.03353,1.02526 -0.43614,0.25115 -0.90743,0.37621 -1.41386,0.37621 -0.51263,0 -0.98599,-0.12093 -1.418,-0.36381 -0.42995,-0.24494 -0.77102,-0.58291 -1.02113,-1.01285 -0.25115,-0.42995 -0.3762,-0.90951 -0.3762,-1.43868 z m 0.3886,0.008 c 0,0.44132 0.10852,0.84956 0.3266,1.2237 0.21704,0.37207 0.50953,0.66869 0.87643,0.88883 0.36897,0.22118 0.77411,0.33073 1.21543,0.33073 0.44648,0 0.85679,-0.10852 1.23197,-0.32659 0.37413,-0.21704 0.67076,-0.51367 0.88883,-0.88884 0.21704,-0.37723 0.32659,-0.78961 0.32659,-1.2361 0,-0.44648 -0.11058,-0.85679 -0.33072,-1.23196 -0.21808,-0.37414 -0.5147,-0.67386 -0.88884,-0.89711 -0.37207,-0.22324 -0.77928,-0.33486 -1.21956,-0.33486 -0.44649,0 -0.85783,0.11369 -1.23197,0.339 -0.37207,0.22324 -0.66456,0.52503 -0.87643,0.90537 -0.21291,0.37827 -0.31833,0.78755 -0.31833,1.22783 z m 11.95379,-2.90215 v 5.6472 h -0.3762 v -4.53512 l -2.26963,3.19567 h -0.0165 l -2.2531,-3.15433 v 4.49378 h -0.37207 v -5.6472 h 0.004 l 2.62929,3.74138 2.64584,-3.74138 z m 7.04557,0 v 5.6472 h -0.37621 v -4.53512 l -2.26962,3.19567 h -0.0165 l -2.25309,-3.15433 v 4.49378 h -0.37207 v -5.6472 h 0.004 l 2.6293,3.74138 2.64583,-3.74138 z m 2.1053,3.78272 c 0,0.31419 0.0641,0.59014 0.1943,0.82682 0.12919,0.23461 0.31006,0.41651 0.54157,0.5457 0.23151,0.12713 0.49196,0.19017 0.78135,0.19017 0.29455,0 0.5581,-0.063 0.78961,-0.19017 0.23151,-0.12919 0.41341,-0.31109 0.54571,-0.5457 0.13229,-0.23668 0.19843,-0.51263 0.19843,-0.82682 v -3.65869 h 0.37207 v 3.67936 c 0,0.39481 -0.0847,0.73484 -0.25218,1.02113 -0.16536,0.28422 -0.39171,0.50332 -0.67799,0.65732 -0.28732,0.15193 -0.61185,0.22738 -0.97565,0.22738 -0.35864,0 -0.68213,-0.0755 -0.97152,-0.22738 -0.28732,-0.154 -0.51263,-0.3731 -0.678,-0.65732 -0.16536,-0.28629 -0.24804,-0.62632 -0.24804,-1.02113 v -3.67936 h 0.38034 z m 9.78441,-3.65869 v 5.65547 h -0.0165 l -4.25399,-4.79144 0.008,4.65914 h -0.37207 v -5.63893 h 0.0207 l 4.254,4.82865 -0.008,-4.71289 z m 2.13837,0 v 5.52317 h -0.38034 v -5.52317 z m 5.72265,5.15937 c -0.20154,0.12403 -0.42995,0.22634 -0.68626,0.30593 -0.25425,0.0796 -0.52504,0.11989 -0.81442,0.11989 -0.55397,0 -1.0449,-0.12403 -1.47175,-0.37207 -0.42478,-0.25012 -0.75551,-0.58808 -0.99218,-1.01286 -0.23462,-0.42375 -0.35141,-0.88987 -0.35141,-1.39733 0,-0.53434 0.12093,-1.01906 0.36381,-1.45521 0.24494,-0.43512 0.57981,-0.77825 1.00459,-1.0294 0.42374,-0.25321 0.89503,-0.38033 1.41386,-0.38033 0.54571,0 1.048,0.14056 1.50896,0.42168 l -0.16124,0.35139 c -0.43614,-0.26975 -0.88263,-0.40514 -1.33945,-0.40514 -0.42995,0 -0.82992,0.11059 -1.19889,0.33073 -0.36691,0.22118 -0.65733,0.5209 -0.8723,0.90124 -0.21497,0.38034 -0.32246,0.79685 -0.32246,1.2485 0,0.44648 0.0971,0.85576 0.29352,1.22783 0.19844,0.37001 0.47749,0.66353 0.83923,0.88057 0.3638,0.21807 0.78341,0.32659 1.2609,0.32659 0.47646,0 0.92604,-0.13229 1.34772,-0.39687 z m 4.47311,-1.46347 h -2.43499 l -0.73174,1.82727 h -0.38034 l 2.33164,-5.76295 h 0.0331 l 2.33164,5.76295 h -0.42581 z m -0.14056,-0.35967 -1.0666,-2.71198 -1.08727,2.71198 z m 5.32578,-3.33623 v 0.36793 h -1.62471 v 5.15524 h -0.38034 v -5.15524 h -1.61231 v -0.36793 z m 1.69705,0 v 5.52317 h -0.38034 v -5.52317 z m 1.40663,2.76985 c 0,-0.50643 0.12609,-0.97668 0.38034,-1.40973 0.25321,-0.43201 0.59531,-0.77721 1.02526,-1.03353 0.42995,-0.25838 0.89917,-0.3886 1.40973,-0.3886 0.50643,0 0.97772,0.13022 1.41387,0.3886 0.43512,0.25632 0.77928,0.60152 1.03353,1.03353 0.25631,0.43305 0.38447,0.9033 0.38447,1.40973 0,0.50747 -0.12816,0.97876 -0.38447,1.41387 -0.25425,0.43305 -0.59841,0.77515 -1.03353,1.02526 -0.43615,0.25115 -0.90744,0.37621 -1.41387,0.37621 -0.51263,0 -0.98598,-0.12093 -1.418,-0.36381 -0.42995,-0.24494 -0.77101,-0.58291 -1.02112,-1.01285 -0.25115,-0.42995 -0.37621,-0.90951 -0.37621,-1.43868 z m 0.38861,0.008 c 0,0.44132 0.10852,0.84956 0.32659,1.2237 0.21704,0.37207 0.50953,0.66869 0.87644,0.88883 0.36897,0.22118 0.77411,0.33073 1.21542,0.33073 0.44649,0 0.8568,-0.10852 1.23197,-0.32659 0.37414,-0.21704 0.67076,-0.51367 0.88884,-0.88884 0.21703,-0.37723 0.32659,-0.78961 0.32659,-1.2361 0,-0.44648 -0.11059,-0.85679 -0.33073,-1.23196 -0.21807,-0.37414 -0.51469,-0.67386 -0.88883,-0.89711 -0.37207,-0.22324 -0.77929,-0.33486 -1.21957,-0.33486 -0.44648,0 -0.85783,0.11369 -1.23196,0.339 -0.37207,0.22324 -0.66456,0.52503 -0.87643,0.90537 -0.21291,0.37827 -0.31833,0.78755 -0.31833,1.22783 z m 11.3006,-2.77812 v 5.65547 h -0.0165 l -4.25399,-4.79144 0.008,4.65914 h -0.37207 v -5.63893 h 0.0207 l 4.254,4.82865 -0.008,-4.71289 z m 4.51549,0.62425 c -0.185,-0.0878 -0.39171,-0.16227 -0.62012,-0.22324 -0.22944,-0.0631 -0.45269,-0.0951 -0.66973,-0.0951 -0.3638,0 -0.65525,0.0899 -0.8723,0.26872 -0.21807,0.17983 -0.32659,0.40824 -0.32659,0.68626 0,0.19844 0.0579,0.3669 0.17363,0.50436 0.11782,0.1354 0.26872,0.24805 0.45062,0.339 0.1819,0.0909 0.41445,0.19224 0.69866,0.30179 0.3111,0.11369 0.56845,0.23048 0.77309,0.3514 0.2067,0.11886 0.37826,0.28009 0.51676,0.48369 0.14056,0.20464 0.21084,0.46716 0.21084,0.78962 0,0.30592 -0.0734,0.57774 -0.21911,0.81442 -0.14366,0.23461 -0.34623,0.41651 -0.60771,0.5457 -0.26252,0.13023 -0.56121,0.19431 -0.89711,0.19431 -0.58704,0 -1.16892,-0.18811 -1.74459,-0.56638 l 0.1819,-0.31419 c 0.19017,0.14676 0.42374,0.27492 0.7028,0.38447 0.28112,0.10749 0.55397,0.16123 0.81855,0.16123 0.23358,0 0.45579,-0.0455 0.66559,-0.13642 0.20878,-0.091 0.38034,-0.22738 0.51264,-0.40928 0.13229,-0.18397 0.19843,-0.40618 0.19843,-0.66559 0,-0.24495 -0.061,-0.45062 -0.1819,-0.61599 -0.12195,-0.16536 -0.27492,-0.29765 -0.45889,-0.39687 -0.185,-0.10129 -0.41651,-0.20464 -0.69453,-0.31006 -0.31212,-0.11265 -0.56947,-0.22324 -0.77308,-0.33073 -0.20154,-0.10749 -0.37103,-0.24805 -0.50849,-0.42168 -0.13849,-0.1757 -0.20671,-0.39687 -0.20671,-0.66146 0,-0.25838 0.0661,-0.48782 0.19844,-0.68626 0.13229,-0.2005 0.31522,-0.35657 0.54984,-0.46715 0.23667,-0.11266 0.50126,-0.17157 0.79375,-0.17777 0.24804,0 0.50539,0.0351 0.77308,0.10335 0.26665,0.0661 0.50436,0.1509 0.71106,0.25218 z m 0,0"
       style="fill:#000000;fill-opacity:1;fill-rule:nonzero;stroke:none;stroke-width:0.352778"
       aria-label="COMMUNICATIONS" />
    <path
       id="path22"
       d="M 93.794778,88.238542 H 172.67624 V 116.19618 H 93.794778 Z"
       style="fill:none;stroke:#231f20;stroke-width:0.264583;stroke-linecap:butt;stroke-linejoin:miter;stroke-miterlimit:10;stroke-dasharray:none;stroke-opacity:1" />
  </g>
</svg>
